<svg width="47" height="46" viewBox="0 0 47 46" fill="none" xmlns="http://www.w3.org/2000/svg">
<path d="M20.8904 21.6364V36.2744C20.8904 37.5186 20.6242 38.7044 20.0916 39.8319C19.6001 40.9205 18.9243 41.8731 18.0641 42.6895C17.2038 43.506 16.1798 44.1475 14.9919 44.6141C13.845 45.1195 12.6162 45.3722 11.3054 45.3722C9.99462 45.3722 8.76577 45.1389 7.61885 44.6724C6.47193 44.2058 5.46837 43.5837 4.60817 42.8062C3.74798 41.9897 3.05163 41.0566 2.51914 40.0068C2.0276 38.9182 1.76135 37.7518 1.72038 36.5077V25.7187C1.5975 24.5134 1.02404 23.6386 0 23.0943C0.573462 22.8222 1.14693 22.6861 1.72038 22.6861V8.9228C1.76135 7.6787 2.0276 6.5123 2.51914 5.4237C3.05163 4.335 3.74798 3.4019 4.60817 2.6243C5.46837 1.8079 6.47193 1.1664 7.61885 0.6998C8.76577 0.2333 9.99462 0 11.3054 0C12.6162 0 13.845 0.252701 14.9919 0.758101C16.1798 1.2247 17.2038 1.8662 18.0641 2.6827C18.9243 3.4991 19.6001 4.4711 20.0916 5.5986C20.6242 6.6872 20.8904 7.8731 20.8904 9.1561C20.8904 9.817 20.9519 10.303 21.0747 10.6141C21.2385 10.9251 21.4024 11.1778 21.5662 11.3722C21.7301 11.5666 21.8735 11.7416 21.9963 11.8971C22.1602 12.0526 22.2421 12.3053 22.2421 12.6552H19.0472C18.3918 12.5775 18.0641 12.247 18.0641 11.6638C18.0641 12.247 17.7364 12.5775 17.081 12.6552H13.8245C13.8245 12.3053 13.8859 12.0526 14.0089 11.8971C14.1727 11.7416 14.3365 11.5666 14.5004 11.3722C14.6642 11.1778 14.8076 10.9251 14.9305 10.6141C15.0943 10.303 15.1763 9.7976 15.1763 9.0978V9.0394C15.1763 8.534 15.1558 7.9314 15.1148 7.2315C15.0738 6.4928 14.9305 5.793 14.6848 5.1321C14.4389 4.4711 14.0498 3.9074 13.5173 3.4408C12.9848 2.9743 12.2475 2.741 11.3054 2.741C10.3223 2.741 9.56452 2.9937 9.03202 3.4991C8.54048 3.9657 8.17183 4.5294 7.92606 5.1904C7.68029 5.8513 7.53692 6.5512 7.49597 7.2899C7.455 8.0286 7.43452 8.6506 7.43452 9.1561V22.6861C8.00799 22.6861 8.58145 22.8222 9.1549 23.0943C8.13087 23.6386 7.5574 24.5134 7.43452 25.7187V36.2744C7.43452 36.7799 7.455 37.4019 7.49597 38.1406C7.53692 38.8405 7.68029 39.5403 7.92606 40.2401C8.17183 40.9011 8.54048 41.4648 9.03202 41.9314C9.56452 42.3979 10.3223 42.6312 11.3054 42.6312C12.2885 42.6312 13.0258 42.3979 13.5173 41.9314C14.0498 41.4648 14.4389 40.9011 14.6848 40.2401C14.9305 39.5403 15.0738 38.8405 15.1148 38.1406C15.1558 37.4019 15.1763 36.7799 15.1763 36.2744V24.319C14.7257 24.3579 14.3365 24.5329 14.0089 24.8439C13.7221 25.1549 13.5788 25.5243 13.5788 25.952V26.0103C13.5378 26.5935 13.374 27.0989 13.0872 27.5266C12.8414 27.9154 12.4728 28.2653 11.9812 28.5763C11.4897 28.8485 10.7729 28.9845 9.83077 28.9845V21.6364H20.8904ZM5.03827 19.9451C5.03827 19.7118 5.01779 19.4785 4.97683 19.2453C4.97683 19.012 4.97683 18.7982 4.97683 18.6038V17.2624C4.93586 16.4071 4.91538 15.5906 4.91538 14.813C4.91538 14.0354 4.89491 13.2967 4.85394 12.5969C4.81298 12.247 4.7925 11.9359 4.7925 11.6638C4.7925 11.3528 4.77202 11.0417 4.73106 10.7307C4.73106 10.4585 4.71058 10.2058 4.66961 9.9725C4.66961 9.7004 4.66961 9.4671 4.66961 9.2727C4.66961 9.0783 4.64914 8.9034 4.60817 8.7478C4.60817 8.5923 4.60817 8.4562 4.60817 8.3396V8.048C4.56721 8.048 4.54673 8.0675 4.54673 8.1063V8.3396C4.54673 8.4562 4.52626 8.5923 4.48529 8.7478C4.48529 8.9034 4.48529 9.0783 4.48529 9.2727C4.48529 9.4671 4.46481 9.7004 4.42384 9.9725C4.42384 10.2058 4.42384 10.4585 4.42384 10.7307C4.38289 11.0417 4.36241 11.3528 4.36241 11.6638C4.36241 11.9359 4.34192 12.247 4.30096 12.5969C4.26 13.2967 4.23952 14.0354 4.23952 14.813C4.23952 15.5906 4.21904 16.4071 4.17807 17.2624V18.6038C4.17807 18.7982 4.1576 19.012 4.11664 19.2453C4.11664 19.4785 4.11664 19.7118 4.11664 19.9451V25.3688C4.11664 25.4854 4.11664 25.602 4.11664 25.7187C4.1576 25.8353 4.17807 25.9325 4.17807 26.0103V27.9931C4.17807 28.4208 4.17807 28.8485 4.17807 29.2761C4.21904 29.6649 4.23952 30.0537 4.23952 30.4425C4.23952 30.8702 4.23952 31.2784 4.23952 31.6672C4.28049 32.0171 4.30096 32.3476 4.30096 32.6586C4.34192 33.0086 4.36241 33.339 4.36241 33.6501C4.36241 33.9611 4.38289 34.2527 4.42384 34.5249C4.42384 34.8359 4.42384 35.108 4.42384 35.3413C4.46481 35.5746 4.48529 35.7884 4.48529 35.9828C4.48529 36.1772 4.48529 36.3522 4.48529 36.5077C4.52626 36.6632 4.54673 36.7993 4.54673 36.9159V37.2075C4.54673 37.2464 4.56721 37.2659 4.60817 37.2659V36.9159C4.60817 36.7993 4.60817 36.6632 4.60817 36.5077C4.64914 36.3522 4.66961 36.1772 4.66961 35.9828C4.66961 35.7884 4.66961 35.5746 4.66961 35.3413C4.71058 35.108 4.73106 34.8359 4.73106 34.5249C4.77202 34.2527 4.7925 33.9611 4.7925 33.6501C4.7925 33.339 4.81298 33.0086 4.85394 32.6586C4.85394 32.3476 4.85394 32.0171 4.85394 31.6672C4.89491 31.2784 4.91538 30.8702 4.91538 30.4425C4.91538 30.0537 4.91538 29.6649 4.91538 29.2761C4.95635 28.8485 4.97683 28.4208 4.97683 27.9931V26.7101C4.97683 26.3991 4.99731 26.1658 5.03827 26.0103V19.9451ZM18.4327 28.4014C18.3918 28.0126 18.3713 27.6627 18.3713 27.3516C18.3713 27.0017 18.3507 26.6712 18.3098 26.3602C18.2689 25.777 18.2074 25.291 18.1254 24.9022C18.1254 24.8245 18.105 24.7467 18.0641 24.6689C18.0641 24.5912 18.0641 24.5329 18.0641 24.494V24.319L18.0026 24.3773V24.494C18.0026 24.5329 17.9821 24.5912 17.9412 24.6689C17.9412 24.7467 17.9412 24.8245 17.9412 24.9022C17.8592 25.291 17.7977 25.777 17.7568 26.3602C17.7159 26.6712 17.6954 27.0017 17.6954 27.3516C17.6954 27.6627 17.6749 28.0126 17.6339 28.4014V28.9845C17.6339 29.1012 17.6135 29.2178 17.5725 29.3345C17.5725 29.4122 17.5725 29.49 17.5725 29.5677V32.0171C17.5725 32.1338 17.593 32.231 17.6339 32.3087V33.1835C17.6339 33.3779 17.6339 33.5529 17.6339 33.7084C17.6749 33.8639 17.6954 34.0389 17.6954 34.2333C17.6954 34.4277 17.6954 34.6026 17.6954 34.7581C17.7364 34.9137 17.7568 35.0692 17.7568 35.2247C17.7977 35.3802 17.8183 35.5357 17.8183 35.6912C17.8183 35.8079 17.8388 35.9245 17.8797 36.0412C17.8797 36.1578 17.8797 36.2744 17.8797 36.3911C17.9207 36.5077 17.9412 36.6049 17.9412 36.6827C17.9412 36.7604 17.9412 36.8382 17.9412 36.9159C17.9821 36.9937 18.0026 37.052 18.0026 37.0909V37.2075C18.0026 37.2464 18.023 37.2659 18.0641 37.2659V37.0909C18.0641 37.052 18.0641 36.9937 18.0641 36.9159C18.105 36.8382 18.1254 36.7604 18.1254 36.6827C18.1254 36.6049 18.1254 36.5077 18.1254 36.3911C18.1665 36.2744 18.1869 36.1578 18.1869 36.0412C18.2279 35.9245 18.2484 35.8079 18.2484 35.6912C18.2484 35.5357 18.2689 35.3802 18.3098 35.2247C18.3098 35.0692 18.3098 34.9137 18.3098 34.7581C18.3507 34.6026 18.3713 34.4277 18.3713 34.2333C18.3713 34.0389 18.3713 33.8639 18.3713 33.7084C18.4122 33.5529 18.4327 33.3779 18.4327 33.1835V32.6003C18.4327 32.4448 18.4531 32.3476 18.4942 32.3087V29.5677C18.4942 29.49 18.4737 29.4122 18.4327 29.3345C18.4327 29.2178 18.4327 29.1012 18.4327 28.9845V28.4014Z" fill="#F4EDE8"/>
<path d="M44.8529 22.6278C45.5492 22.6278 46.1227 22.7639 46.5733 23.036C46.1227 23.3082 45.7336 23.6775 45.4059 24.1441C45.1191 24.6106 44.9349 25.116 44.8529 25.6604V34.4665C44.812 35.7107 44.5252 36.877 43.9927 37.9657C43.5012 39.0154 42.8253 39.9485 41.9651 40.765C41.1049 41.5426 40.1013 42.1646 38.9544 42.6312C37.8076 43.0977 36.5787 43.331 35.2679 43.331C33.9571 43.331 32.7283 43.0977 31.5814 42.6312C30.4345 42.1646 29.4309 41.5426 28.5707 40.765C27.7105 39.9485 27.0142 39.0154 26.4816 37.9657C25.9901 36.877 25.7239 35.7107 25.6829 34.4665V25.6604C25.56 24.4551 24.9866 23.5803 23.9625 23.036C24.4131 22.7639 24.9866 22.6278 25.6829 22.6278V11.3722C25.7239 10.1669 25.9901 9.02 26.4816 7.9314C27.0142 6.8427 27.7105 5.9096 28.5707 5.1321C29.4309 4.3156 30.4345 3.6741 31.5814 3.2075C32.7283 2.741 33.9571 2.5077 35.2679 2.5077C36.5787 2.5077 37.8076 2.741 38.9544 3.2075C40.1013 3.6741 41.1049 4.3156 41.9651 5.1321C42.8253 5.9096 43.5012 6.8427 43.9927 7.9314C44.5252 9.02 44.812 10.1669 44.8529 11.3722V22.6278ZM29.0008 20.5283C29.0008 20.3339 28.9803 20.1589 28.9393 20.0034C28.9393 19.809 28.9393 19.6146 28.9393 19.4202V18.3122C28.8984 17.5735 28.8779 16.8736 28.8779 16.2127C28.8779 15.5517 28.8575 14.9297 28.8164 14.3465C28.7755 14.0743 28.7551 13.8022 28.7551 13.53C28.7551 13.2578 28.7346 13.0051 28.6936 12.7719C28.6936 12.5386 28.6731 12.3247 28.6322 12.1303C28.6322 11.936 28.6322 11.761 28.6322 11.6055C28.6322 11.4111 28.6116 11.2556 28.5707 11.1389C28.5707 10.9834 28.5707 10.8668 28.5707 10.789V10.4974C28.5298 10.4974 28.5092 10.5169 28.5092 10.5557V10.789C28.5092 10.8668 28.4887 10.9834 28.4478 11.1389C28.4478 11.2556 28.4478 11.4111 28.4478 11.6055C28.4478 11.761 28.4274 11.936 28.3863 12.1303C28.3863 12.3247 28.3863 12.5386 28.3863 12.7719C28.3454 13.0051 28.3249 13.2578 28.3249 13.53C28.3249 13.8022 28.3045 14.0743 28.2635 14.3465C28.2225 14.9297 28.2021 15.5517 28.2021 16.2127C28.2021 16.8736 28.1816 17.5735 28.1406 18.3122V19.4202C28.1406 19.6146 28.1201 19.809 28.0792 20.0034C28.0792 20.1589 28.0792 20.3339 28.0792 20.5283V25.1355C28.0792 25.4076 28.0997 25.602 28.1406 25.7187V27.4099C28.1406 27.7598 28.1406 28.1098 28.1406 28.4597C28.1816 28.8096 28.2021 29.1401 28.2021 29.4511C28.2021 29.801 28.2021 30.1315 28.2021 30.4425C28.243 30.7147 28.2635 31.0063 28.2635 31.3173C28.3045 31.6283 28.3249 31.9199 28.3249 32.1921C28.3249 32.4254 28.3454 32.6586 28.3863 32.8919C28.3863 33.1252 28.3863 33.339 28.3863 33.5334C28.4274 33.7278 28.4478 33.9222 28.4478 34.1166C28.4478 34.311 28.4478 34.486 28.4478 34.6415C28.4887 34.7581 28.5092 34.8553 28.5092 34.9331V35.108C28.5092 35.1469 28.5298 35.1664 28.5707 35.1664V34.9331C28.5707 34.8553 28.5707 34.7581 28.5707 34.6415C28.6116 34.486 28.6322 34.311 28.6322 34.1166C28.6322 33.9222 28.6322 33.7278 28.6322 33.5334C28.6731 33.339 28.6936 33.1252 28.6936 32.8919C28.7346 32.6586 28.7551 32.4254 28.7551 32.1921C28.7551 31.9199 28.7755 31.6283 28.8164 31.3173C28.8164 31.0063 28.8164 30.7147 28.8164 30.4425C28.8575 30.1315 28.8779 29.801 28.8779 29.4511C28.8779 29.1401 28.8779 28.8096 28.8779 28.4597C28.9189 28.1098 28.9393 27.7598 28.9393 27.4099V25.7187C28.9803 25.602 29.0008 25.4076 29.0008 25.1355V20.5283ZM39.1388 11.6055C39.1388 11.1 39.1183 10.478 39.0773 9.7393C39.0364 9.0006 38.8931 8.3007 38.6472 7.6398C38.4015 6.9788 38.0124 6.4151 37.4798 5.9485C36.9882 5.4431 36.251 5.1904 35.2679 5.1904C34.2848 5.1904 33.527 5.4431 32.9946 5.9485C32.503 6.4151 32.1344 6.9788 31.8886 7.6398C31.6429 8.3007 31.4994 9.0006 31.4585 9.7393C31.4176 10.478 31.397 11.1 31.397 11.6055V22.6278C32.0934 22.6278 32.6669 22.7639 33.1175 23.036C32.0934 23.5803 31.5199 24.4551 31.397 25.6604V34.2333C31.397 34.7387 31.4176 35.3608 31.4585 36.0995C31.4994 36.7993 31.6429 37.4991 31.8886 38.1989C32.1344 38.8599 32.503 39.4236 32.9946 39.8902C33.527 40.3568 34.2848 40.59 35.2679 40.59C36.251 40.59 36.9882 40.3568 37.4798 39.8902C38.0124 39.4236 38.4015 38.8599 38.6472 38.1989C38.8931 37.4991 39.0364 36.7993 39.0773 36.0995C39.1183 35.3608 39.1388 34.7387 39.1388 34.2333V25.6604C39.0569 24.494 38.4834 23.6192 37.4184 23.036C37.8689 22.7639 38.4425 22.6278 39.1388 22.6278V11.6055ZM42.4566 20.5283C42.4566 20.3339 42.4566 20.1589 42.4566 20.0034C42.4566 19.809 42.4362 19.6146 42.3952 19.4202V18.3122C42.3952 17.5735 42.3748 16.8736 42.3337 16.2127C42.3337 15.5517 42.3133 14.9297 42.2723 14.3465C42.2313 14.0743 42.2109 13.8022 42.2109 13.53C42.2109 13.2578 42.1904 13.0051 42.1495 12.7719C42.1495 12.5386 42.129 12.3247 42.088 12.1303C42.088 11.936 42.088 11.761 42.088 11.6055C42.088 11.4111 42.0675 11.2556 42.0266 11.1389C42.0266 10.9834 42.0266 10.8668 42.0266 10.789V10.4974C41.9856 10.4974 41.9651 10.5169 41.9651 10.5557V10.789C41.9651 10.8668 41.9651 10.9834 41.9651 11.1389C41.9651 11.2556 41.9447 11.4111 41.9037 11.6055C41.9037 11.761 41.8832 11.936 41.8422 12.1303C41.8422 12.3247 41.8422 12.5386 41.8422 12.7719C41.8013 13.0051 41.7808 13.2578 41.7808 13.53C41.7808 13.8022 41.7603 14.0743 41.7194 14.3465C41.6785 14.9297 41.6579 15.5517 41.6579 16.2127C41.6579 16.8736 41.6374 17.5735 41.5965 18.3122V20.5283C41.5555 20.9171 41.535 21.3059 41.535 21.6947C41.535 22.0835 41.535 22.4723 41.535 22.861C41.535 23.2498 41.535 23.6386 41.535 24.0274C41.535 24.3773 41.5555 24.7467 41.5965 25.1355V27.4099C41.5965 27.7598 41.5965 28.1098 41.5965 28.4597C41.6374 28.8096 41.6579 29.1401 41.6579 29.4511C41.6579 29.801 41.6579 30.1315 41.6579 30.4425C41.6989 30.7147 41.7194 31.0063 41.7194 31.3173C41.7603 31.6283 41.7808 31.9199 41.7808 32.1921C41.7808 32.4254 41.8013 32.6586 41.8422 32.8919C41.8422 33.1252 41.8422 33.339 41.8422 33.5334C41.8832 33.7278 41.9037 33.9222 41.9037 34.1166C41.9447 34.311 41.9651 34.486 41.9651 34.6415C41.9651 34.7581 41.9651 34.8553 41.9651 34.9331V35.108C41.9651 35.1469 41.9856 35.1664 42.0266 35.1664V34.9331C42.0266 34.8553 42.0266 34.7581 42.0266 34.6415C42.0675 34.486 42.088 34.311 42.088 34.1166C42.088 33.9222 42.088 33.7278 42.088 33.5334C42.129 33.339 42.1495 33.1252 42.1495 32.8919C42.1904 32.6586 42.2109 32.4254 42.2109 32.1921C42.2109 31.9199 42.2313 31.6283 42.2723 31.3173C42.2723 31.0063 42.2723 30.7147 42.2723 30.4425C42.3133 30.1315 42.3337 29.801 42.3337 29.4511C42.3337 29.1401 42.3337 28.8096 42.3337 28.4597C42.3748 28.1098 42.3952 27.7598 42.3952 27.4099V26.3019C42.3952 26.2241 42.3952 26.1269 42.3952 26.0103C42.4362 25.8936 42.4566 25.7964 42.4566 25.7187V20.5283Z" fill="#F4EDE8"/>
</svg>
